# Blender 4.0.2
# www.blender.org
mtllib CuboOcoTampa.mtl
o Cubo_Oco
v -0.500000 -0.500000 0.500000
v -0.490000 -0.490000 0.490000
v -0.500000 0.500000 0.500000
v -0.490000 0.490000 0.490000
v -0.500000 -0.500000 -0.500000
v -0.490000 -0.490000 -0.490000
v -0.500000 0.500000 -0.500000
v -0.490000 0.490000 -0.490000
v 0.500000 -0.500000 0.500000
v 0.490000 -0.490000 0.490000
v 0.500000 0.500000 0.500000
v 0.490000 0.490000 0.490000
v 0.500000 -0.500000 -0.500000
v 0.490000 -0.490000 -0.490000
v 0.500000 0.500000 -0.500000
v 0.490000 0.490000 -0.490000
vn -1.0000 -0.0000 -0.0000
vn -0.0000 -0.0000 -1.0000
vn 1.0000 -0.0000 -0.0000
vn -0.0000 -0.0000 1.0000
vn -0.0000 -1.0000 -0.0000
vn -0.0000 1.0000 -0.0000
vt 0.375000 0.000000
vt 0.625000 0.000000
vt 0.625000 0.250000
vt 0.375000 0.250000
vt 0.625000 0.500000
vt 0.375000 0.500000
vt 0.625000 0.750000
vt 0.375000 0.750000
vt 0.625000 1.000000
vt 0.375000 1.000000
vt 0.125000 0.500000
vt 0.125000 0.750000
s 0
usemtl Cubo.001
f 1/1/1 3/2/1 7/3/1 5/4/1
f 5/4/2 7/3/2 15/5/2 13/6/2
f 13/6/3 15/5/3 11/7/3 9/8/3
f 9/8/4 11/7/4 3/9/4 1/10/4
f 5/11/5 13/6/5 9/8/5 1/12/5
usemtl 
f 2/1/3 6/4/3 8/3/3 4/2/3
f 6/4/4 14/6/4 16/5/4 8/3/4
f 14/6/1 10/8/1 12/7/1 16/5/1
f 10/8/2 2/10/2 4/9/2 12/7/2
f 6/11/6 2/12/6 10/8/6 14/6/6
o Tampa
v -0.500000 0.500000 0.500000
v 0.500000 0.500000 0.500000
v -0.500000 0.500000 -0.500000
v 0.500000 0.500000 -0.500000
vn -0.0000 1.0000 -0.0000
vt 0.000000 0.000000
vt 1.000000 0.000000
vt 1.000000 1.000000
vt 0.000000 1.000000
s 0
usemtl Tampa.001
f 17/13/7 18/14/7 20/15/7 19/16/7
